<svg viewBox="0 0 500 500" fill="none" xmlns="http://www.w3.org/2000/svg">
  <circle cx="250" cy="250" r="230" fill="white" fill-opacity="0.72"/>

  <path d="M70 210 C120 120 200 100 280 130 C340 155 380 200 400 260" stroke="#b8c2cc" stroke-width="3.5" stroke-linecap="round" fill="none"/>
  <path d="M90 280 C160 220 240 240 320 270" stroke="#c5cdd6" stroke-width="2.5" stroke-linecap="round" fill="none"/>
  <path d="M110 320 C200 350 300 330 380 290" stroke="#b8c2cc" stroke-width="2" stroke-linecap="round" fill="none"/>
  <path d="M140 170 C180 140 220 150 260 180" stroke="#d1d8e0" stroke-width="2" stroke-linecap="round" fill="none"/>

  <g transform="translate(250 255) rotate(-42)">
    <ellipse cx="-55" cy="95" rx="48" ry="30" fill="#6b7280"/>
    <ellipse cx="-55" cy="92" rx="38" ry="22" fill="#9ca3af"/>
    <path d="M-15 55 L-15 105 L-5 105 L-5 55 Z" fill="#c9a227"/>
    <rect x="-18" y="58" width="16" height="12" rx="2" fill="#e8c84a"/>
    <rect x="-12" y="-95" width="26" height="155" rx="8" fill="#c4a066"/>
    <rect x="-8" y="-88" width="8" height="140" rx="3" fill="#d4b87a" fill-opacity="0.45"/>
    <rect x="-14" y="-100" width="30" height="14" rx="5" fill="#b8924f"/>
  </g>

  <g>
    <ellipse cx="340" cy="175" rx="34" ry="12" fill="#b8924f"/>
    <ellipse cx="340" cy="170" rx="28" ry="9" fill="#d4b896"/>
    <ellipse cx="340" cy="168" rx="20" ry="6" fill="#e8cdb0"/>

    <ellipse cx="340" cy="225" rx="34" ry="12" fill="#b8924f"/>
    <ellipse cx="340" cy="220" rx="28" ry="9" fill="#d4b896"/>
    <ellipse cx="340" cy="218" rx="20" ry="6" fill="#e8cdb0"/>

    <ellipse cx="340" cy="275" rx="34" ry="12" fill="#b8924f"/>
    <ellipse cx="340" cy="270" rx="28" ry="9" fill="#d4b896"/>
    <ellipse cx="340" cy="268" rx="20" ry="6" fill="#e8cdb0"/>
  </g>
</svg>
